{"title":"The.American.2010.720p.BRRip.RC.H264.Feel-Free","uid":6022207,"size":1686573139,"categoryP":"video","categoryS":"hd___movies","magnet":"?xt=urn:btih:150c3be23283ea1559da0f0f7601fbd5e9f2e5f8&amp;dn=The.American.2010.720p.BRRip.RC.H264.Feel-Free&amp;tr=udp%3A%2F%2Ftracker.openbittorrent.com%3A80&amp;tr=udp%3A%2F%2Fopen.demonii.com%3A1337&amp;tr=udp%3A%2F%2Ftracker.coppersurfer.tk%3A6969&amp;tr=udp%3A%2F%2Fexodus.desync.com%3A6969","seeders":0,"leechers":2,"uploader":"neon","files":-1,"time":1291832565,"description":"Genre:Drama | Thriller\nLanguage: English\nIMDB:http://www.imdb.com/title/tt1440728/\nSource:720p BluRay DTS x264-DNL\n\nFormat : MPEG-4\nFormat profile : Base Media\nCodec ID : mp42\nFile size : 1.56 GiB\nDuration : 1h 40mn\nOverall bit rate : 2 226 Kbps\n\n\nVideo\nCodec ID : avc1\nCodec ID/Info : Advanced Video Coding\nDuration : 1h 40mn\nBit rate mode : Variable\nBit rate : 1 745 Kbps\nWidth : 1 280 pixels\nHeight : 720 pixels\nDisplay aspect ratio : 16:9\nFrame rate mode : Constant\nFrame rate : 23.976 fps\nColor space : YUV\nChroma subsampling : 4:2:0\nBit depth : 8 bits\nScan type : Progressive\nBits/(Pixel*Frame) : 0.079\nStream size : 1.23 GiB (78%)\nLanguage : English\n\nAudio\nID : 2\nFormat : AAC\nFormat/Info : Advanced Audio Codec\nFormat version : Version 4\nFormat profile : LC\nCodec ID : 40\nDuration : 1h 40mn\nBit rate mode : Constant\nBit rate : 480 Kbps\nChannel(s) : 6 channels\nChannel positions : Front: L C R, Side: L R, LFE\nSampling rate : 48.0 KHz\nStream size : 343 MiB (21%)\nLanguage : English\n\n\nPlot\nAn assassin hides out in Italy for one last assignment.\n\n","torrent":{"xt":"urn:btih:150c3be23283ea1559da0f0f7601fbd5e9f2e5f8","amp;dn":"The.American.2010.720p.BRRip.RC.H264.Feel-Free","amp;tr":["udp%3A%2F%2Ftracker.openbittorrent.com%3A80","udp%3A%2F%2Fopen.demonii.com%3A1337","udp%3A%2F%2Ftracker.coppersurfer.tk%3A6969","udp%3A%2F%2Fexodus.desync.com%3A6969"],"infoHash":"150c3be23283ea1559da0f0f7601fbd5e9f2e5f8","infoHashBuffer":{"type":"Buffer","data":[21,12,59,226,50,131,234,21,89,218,15,15,118,1,251,213,233,242,229,248]},"announce":[],"urlList":[]}}